<mxfile host="Electron" modified="2025-04-29T03:41:57.541Z" agent="Mozilla/5.0 (Windows NT 10.0; WOW64) AppleWebKit/537.36 (KHTML, like Gecko) draw.io/24.6.4 Chrome/124.0.6367.207 Electron/30.0.6 Safari/537.36" etag="k90EWiQ7x2weZRIB5aUR" version="24.6.4" type="device">
  <diagram name="Page-1" id="RAYdTkjZ0ehcfP36DxYP">
    <mxGraphModel dx="3200" dy="911" grid="1" gridSize="10" guides="1" tooltips="1" connect="1" arrows="1" fold="1" page="1" pageScale="1" pageWidth="850" pageHeight="1100" math="0" shadow="0">
      <root>
        <mxCell id="0" />
        <mxCell id="1" parent="0" />
        <mxCell id="YCPWMxQw9-2d3MJIK4kt-3" value="" style="edgeStyle=orthogonalEdgeStyle;rounded=0;orthogonalLoop=1;jettySize=auto;html=1;" parent="1" source="YCPWMxQw9-2d3MJIK4kt-1" target="YCPWMxQw9-2d3MJIK4kt-2" edge="1">
          <mxGeometry relative="1" as="geometry" />
        </mxCell>
        <mxCell id="YCPWMxQw9-2d3MJIK4kt-1" value="icon feather" style="rounded=0;whiteSpace=wrap;html=1;" parent="1" vertex="1">
          <mxGeometry x="-620" y="1060" width="120" height="60" as="geometry" />
        </mxCell>
        <mxCell id="YCPWMxQw9-2d3MJIK4kt-5" value="" style="edgeStyle=orthogonalEdgeStyle;rounded=0;orthogonalLoop=1;jettySize=auto;html=1;" parent="1" source="YCPWMxQw9-2d3MJIK4kt-2" target="YCPWMxQw9-2d3MJIK4kt-4" edge="1">
          <mxGeometry relative="1" as="geometry" />
        </mxCell>
        <mxCell id="YCPWMxQw9-2d3MJIK4kt-2" value="feathericons.com" style="rounded=0;whiteSpace=wrap;html=1;" parent="1" vertex="1">
          <mxGeometry x="-620" y="1200" width="120" height="60" as="geometry" />
        </mxCell>
        <mxCell id="YCPWMxQw9-2d3MJIK4kt-7" value="" style="edgeStyle=orthogonalEdgeStyle;rounded=0;orthogonalLoop=1;jettySize=auto;html=1;" parent="1" source="YCPWMxQw9-2d3MJIK4kt-4" target="YCPWMxQw9-2d3MJIK4kt-6" edge="1">
          <mxGeometry relative="1" as="geometry" />
        </mxCell>
        <mxCell id="YCPWMxQw9-2d3MJIK4kt-4" value="get started" style="rounded=0;whiteSpace=wrap;html=1;" parent="1" vertex="1">
          <mxGeometry x="-620" y="1340" width="120" height="60" as="geometry" />
        </mxCell>
        <mxCell id="YCPWMxQw9-2d3MJIK4kt-9" value="" style="edgeStyle=orthogonalEdgeStyle;rounded=0;orthogonalLoop=1;jettySize=auto;html=1;" parent="1" source="YCPWMxQw9-2d3MJIK4kt-6" target="YCPWMxQw9-2d3MJIK4kt-8" edge="1">
          <mxGeometry relative="1" as="geometry" />
        </mxCell>
        <mxCell id="YCPWMxQw9-2d3MJIK4kt-6" value="https://github.com/feathericons/feather?tab=readme-ov-file#feather" style="rounded=0;whiteSpace=wrap;html=1;" parent="1" vertex="1">
          <mxGeometry x="-620" y="1480" width="120" height="60" as="geometry" />
        </mxCell>
        <mxCell id="YCPWMxQw9-2d3MJIK4kt-11" value="" style="edgeStyle=orthogonalEdgeStyle;rounded=0;orthogonalLoop=1;jettySize=auto;html=1;" parent="1" source="YCPWMxQw9-2d3MJIK4kt-8" target="YCPWMxQw9-2d3MJIK4kt-10" edge="1">
          <mxGeometry relative="1" as="geometry" />
        </mxCell>
        <mxCell id="YCPWMxQw9-2d3MJIK4kt-8" value="https://unpkg.com/feather-icons@4.29.2/dist/feather-sprite.svg" style="rounded=0;whiteSpace=wrap;html=1;" parent="1" vertex="1">
          <mxGeometry x="-620" y="1620" width="120" height="60" as="geometry" />
        </mxCell>
        <mxCell id="YCPWMxQw9-2d3MJIK4kt-13" value="" style="edgeStyle=orthogonalEdgeStyle;rounded=0;orthogonalLoop=1;jettySize=auto;html=1;" parent="1" source="YCPWMxQw9-2d3MJIK4kt-10" target="YCPWMxQw9-2d3MJIK4kt-12" edge="1">
          <mxGeometry relative="1" as="geometry" />
        </mxCell>
        <mxCell id="YCPWMxQw9-2d3MJIK4kt-10" value="copy paste" style="rounded=0;whiteSpace=wrap;html=1;" parent="1" vertex="1">
          <mxGeometry x="-620" y="1750" width="120" height="60" as="geometry" />
        </mxCell>
        <mxCell id="YCPWMxQw9-2d3MJIK4kt-15" value="" style="edgeStyle=orthogonalEdgeStyle;rounded=0;orthogonalLoop=1;jettySize=auto;html=1;" parent="1" source="YCPWMxQw9-2d3MJIK4kt-17" target="YCPWMxQw9-2d3MJIK4kt-14" edge="1">
          <mxGeometry relative="1" as="geometry" />
        </mxCell>
        <mxCell id="YCPWMxQw9-2d3MJIK4kt-12" value="&lt;pre style=&quot;box-sizing: border-box; font-family: ui-monospace, SFMono-Regular, &amp;quot;SF Mono&amp;quot;, Menlo, Consolas, &amp;quot;Liberation Mono&amp;quot;, monospace; font-size: 13.6px; margin-top: 0px; margin-bottom: 0px; overflow-wrap: normal; padding: 16px; overflow: auto; line-height: 1.45; color: rgb(240, 246, 252); background-color: rgb(21, 27, 35); border-radius: 6px; word-break: normal; min-height: 52px; text-align: start;&quot;&gt;&lt;span style=&quot;box-sizing: border-box;&quot; class=&quot;pl-kos&quot;&gt;&amp;lt;&lt;/span&gt;&lt;span style=&quot;box-sizing: border-box; color: rgb(126, 231, 135);&quot; class=&quot;pl-ent&quot;&gt;svg&lt;/span&gt;&lt;br/&gt;  &lt;span style=&quot;box-sizing: border-box; color: rgb(121, 192, 255);&quot; class=&quot;pl-c1&quot;&gt;width&lt;/span&gt;=&quot;&lt;span style=&quot;box-sizing: border-box; color: rgb(165, 214, 255);&quot; class=&quot;pl-s&quot;&gt;24&lt;/span&gt;&quot;&lt;br/&gt;  &lt;span style=&quot;box-sizing: border-box; color: rgb(121, 192, 255);&quot; class=&quot;pl-c1&quot;&gt;height&lt;/span&gt;=&quot;&lt;span style=&quot;box-sizing: border-box; color: rgb(165, 214, 255);&quot; class=&quot;pl-s&quot;&gt;24&lt;/span&gt;&quot;&lt;br/&gt;  &lt;span style=&quot;box-sizing: border-box; color: rgb(121, 192, 255);&quot; class=&quot;pl-c1&quot;&gt;fill&lt;/span&gt;=&quot;&lt;span style=&quot;box-sizing: border-box; color: rgb(165, 214, 255);&quot; class=&quot;pl-s&quot;&gt;none&lt;/span&gt;&quot;&lt;br/&gt;  &lt;span style=&quot;box-sizing: border-box; color: rgb(121, 192, 255);&quot; class=&quot;pl-c1&quot;&gt;stroke&lt;/span&gt;=&quot;&lt;span style=&quot;box-sizing: border-box; color: rgb(165, 214, 255);&quot; class=&quot;pl-s&quot;&gt;currentColor&lt;/span&gt;&quot;&lt;br/&gt;  &lt;span style=&quot;box-sizing: border-box; color: rgb(121, 192, 255);&quot; class=&quot;pl-c1&quot;&gt;stroke-width&lt;/span&gt;=&quot;&lt;span style=&quot;box-sizing: border-box; color: rgb(165, 214, 255);&quot; class=&quot;pl-s&quot;&gt;2&lt;/span&gt;&quot;&lt;br/&gt;  &lt;span style=&quot;box-sizing: border-box; color: rgb(121, 192, 255);&quot; class=&quot;pl-c1&quot;&gt;stroke-linecap&lt;/span&gt;=&quot;&lt;span style=&quot;box-sizing: border-box; color: rgb(165, 214, 255);&quot; class=&quot;pl-s&quot;&gt;round&lt;/span&gt;&quot;&lt;br/&gt;  &lt;span style=&quot;box-sizing: border-box; color: rgb(121, 192, 255);&quot; class=&quot;pl-c1&quot;&gt;stroke-linejoin&lt;/span&gt;=&quot;&lt;span style=&quot;box-sizing: border-box; color: rgb(165, 214, 255);&quot; class=&quot;pl-s&quot;&gt;round&lt;/span&gt;&quot;&lt;br/&gt;&lt;span style=&quot;box-sizing: border-box;&quot; class=&quot;pl-kos&quot;&gt;&amp;gt;&lt;/span&gt;&lt;br/&gt;  &lt;span style=&quot;box-sizing: border-box;&quot; class=&quot;pl-kos&quot;&gt;&amp;lt;&lt;/span&gt;&lt;span style=&quot;box-sizing: border-box; color: rgb(126, 231, 135);&quot; class=&quot;pl-ent&quot;&gt;use&lt;/span&gt; &lt;span style=&quot;box-sizing: border-box; color: rgb(121, 192, 255);&quot; class=&quot;pl-c1&quot;&gt;href&lt;/span&gt;=&quot;&lt;span style=&quot;box-sizing: border-box; color: rgb(165, 214, 255);&quot; class=&quot;pl-s&quot;&gt;path/to/feather-sprite.svg#circle&lt;/span&gt;&quot; &lt;span style=&quot;box-sizing: border-box;&quot; class=&quot;pl-kos&quot;&gt;/&amp;gt;&lt;/span&gt;&lt;br/&gt;&lt;span style=&quot;box-sizing: border-box;&quot; class=&quot;pl-kos&quot;&gt;&amp;lt;/&lt;/span&gt;&lt;span style=&quot;box-sizing: border-box; color: rgb(126, 231, 135);&quot; class=&quot;pl-ent&quot;&gt;svg&lt;/span&gt;&lt;span style=&quot;box-sizing: border-box;&quot; class=&quot;pl-kos&quot;&gt;&amp;gt;&lt;/span&gt;&lt;/pre&gt;" style="rounded=0;whiteSpace=wrap;html=1;" parent="1" vertex="1">
          <mxGeometry x="-765" y="1860" width="410" height="250" as="geometry" />
        </mxCell>
        <mxCell id="YCPWMxQw9-2d3MJIK4kt-16" value="" style="edgeStyle=orthogonalEdgeStyle;rounded=0;orthogonalLoop=1;jettySize=auto;html=1;" parent="1" source="YCPWMxQw9-2d3MJIK4kt-12" target="YCPWMxQw9-2d3MJIK4kt-17" edge="1">
          <mxGeometry relative="1" as="geometry">
            <mxPoint x="-560" y="2110" as="sourcePoint" />
            <mxPoint x="-560" y="2285" as="targetPoint" />
          </mxGeometry>
        </mxCell>
        <mxCell id="YCPWMxQw9-2d3MJIK4kt-17" value="ganti" style="text;html=1;align=center;verticalAlign=middle;whiteSpace=wrap;rounded=0;" parent="1" vertex="1">
          <mxGeometry x="-590" y="2175" width="60" height="30" as="geometry" />
        </mxCell>
        <mxCell id="YCPWMxQw9-2d3MJIK4kt-21" value="" style="group" parent="1" vertex="1" connectable="0">
          <mxGeometry x="-690" y="2285" width="450" height="35" as="geometry" />
        </mxCell>
        <mxCell id="YCPWMxQw9-2d3MJIK4kt-14" value="&lt;div style=&quot;color: rgb(204, 204, 204); background-color: rgb(31, 31, 31); font-family: Consolas, &amp;quot;Courier New&amp;quot;, monospace; font-size: 14px; line-height: 19px; white-space: pre;&quot;&gt;&lt;span style=&quot;color: #808080;&quot;&gt;&amp;lt;&lt;/span&gt;&lt;span style=&quot;color: #569cd6;&quot;&gt;use&lt;/span&gt; &lt;span style=&quot;color: #9cdcfe;&quot;&gt;href&lt;/span&gt;=&lt;span style=&quot;color: #ce9178;&quot;&gt;&quot;img/feather-sprite.svg&lt;/span&gt;&lt;/div&gt;" style="whiteSpace=wrap;html=1;rounded=0;align=left;" parent="YCPWMxQw9-2d3MJIK4kt-21" vertex="1">
          <mxGeometry width="260" height="35" as="geometry" />
        </mxCell>
        <mxCell id="YCPWMxQw9-2d3MJIK4kt-18" value="&lt;div style=&quot;background-color: rgb(31, 31, 31); font-family: Consolas, &amp;quot;Courier New&amp;quot;, monospace; font-size: 14px; line-height: 19px; white-space: pre;&quot;&gt;&lt;font color=&quot;#808080&quot;&gt;#&lt;/font&gt;&lt;/div&gt;" style="whiteSpace=wrap;html=1;rounded=0;align=center;" parent="YCPWMxQw9-2d3MJIK4kt-21" vertex="1">
          <mxGeometry x="260" width="30" height="35" as="geometry" />
        </mxCell>
        <mxCell id="YCPWMxQw9-2d3MJIK4kt-19" value="&lt;div style=&quot;background-color: rgb(31, 31, 31); font-family: Consolas, &amp;quot;Courier New&amp;quot;, monospace; font-size: 14px; line-height: 19px; white-space: pre;&quot;&gt;&lt;font color=&quot;#808080&quot;&gt;nama icon&lt;/font&gt;&lt;/div&gt;" style="whiteSpace=wrap;html=1;rounded=0;align=center;" parent="YCPWMxQw9-2d3MJIK4kt-21" vertex="1">
          <mxGeometry x="290" width="100" height="35" as="geometry" />
        </mxCell>
        <mxCell id="YCPWMxQw9-2d3MJIK4kt-20" value="&lt;div style=&quot;background-color: rgb(31, 31, 31); font-family: Consolas, &amp;quot;Courier New&amp;quot;, monospace; font-size: 14px; line-height: 19px; white-space: pre;&quot;&gt;&lt;div style=&quot;color: rgb(204, 204, 204); line-height: 19px;&quot;&gt;&lt;span style=&quot;color: #ce9178;&quot;&gt;&quot;&lt;/span&gt; &lt;span style=&quot;color: #808080;&quot;&gt;/&amp;gt;&lt;/span&gt;&lt;/div&gt;&lt;/div&gt;" style="whiteSpace=wrap;html=1;rounded=0;align=center;" parent="YCPWMxQw9-2d3MJIK4kt-21" vertex="1">
          <mxGeometry x="390" width="60" height="35" as="geometry" />
        </mxCell>
        <mxCell id="9cRUzx96YiKMziRGXnhN-3" value="" style="edgeStyle=orthogonalEdgeStyle;rounded=0;orthogonalLoop=1;jettySize=auto;html=1;" edge="1" parent="1" source="9cRUzx96YiKMziRGXnhN-1" target="9cRUzx96YiKMziRGXnhN-2">
          <mxGeometry relative="1" as="geometry" />
        </mxCell>
        <mxCell id="9cRUzx96YiKMziRGXnhN-9" style="edgeStyle=orthogonalEdgeStyle;rounded=0;orthogonalLoop=1;jettySize=auto;html=1;exitX=1;exitY=0.5;exitDx=0;exitDy=0;entryX=0;entryY=0.5;entryDx=0;entryDy=0;" edge="1" parent="1" source="9cRUzx96YiKMziRGXnhN-11" target="9cRUzx96YiKMziRGXnhN-8">
          <mxGeometry relative="1" as="geometry">
            <Array as="points" />
          </mxGeometry>
        </mxCell>
        <mxCell id="9cRUzx96YiKMziRGXnhN-1" value="pasang alpine js" style="rounded=0;whiteSpace=wrap;html=1;" vertex="1" parent="1">
          <mxGeometry x="-810" y="150" width="120" height="60" as="geometry" />
        </mxCell>
        <mxCell id="9cRUzx96YiKMziRGXnhN-5" value="" style="edgeStyle=orthogonalEdgeStyle;rounded=0;orthogonalLoop=1;jettySize=auto;html=1;" edge="1" parent="1" source="9cRUzx96YiKMziRGXnhN-7" target="9cRUzx96YiKMziRGXnhN-4">
          <mxGeometry relative="1" as="geometry" />
        </mxCell>
        <mxCell id="9cRUzx96YiKMziRGXnhN-2" value="alpinejs.dev/start-here" style="rounded=0;whiteSpace=wrap;html=1;" vertex="1" parent="1">
          <mxGeometry x="-810" y="290" width="120" height="60" as="geometry" />
        </mxCell>
        <mxCell id="9cRUzx96YiKMziRGXnhN-4" value="&amp;lt;script defer src=&amp;quot;https://cdn.jsdelivr.net/npm/alpinejs@3.x.x/dist/cdn.min.js&amp;quot;&amp;gt;&amp;lt;/script&amp;gt;" style="rounded=0;whiteSpace=wrap;html=1;" vertex="1" parent="1">
          <mxGeometry x="-990" y="490" width="480" height="60" as="geometry" />
        </mxCell>
        <mxCell id="9cRUzx96YiKMziRGXnhN-6" value="" style="edgeStyle=orthogonalEdgeStyle;rounded=0;orthogonalLoop=1;jettySize=auto;html=1;" edge="1" parent="1" source="9cRUzx96YiKMziRGXnhN-2" target="9cRUzx96YiKMziRGXnhN-7">
          <mxGeometry relative="1" as="geometry">
            <mxPoint x="-750" y="350" as="sourcePoint" />
            <mxPoint x="-750" y="490" as="targetPoint" />
          </mxGeometry>
        </mxCell>
        <mxCell id="9cRUzx96YiKMziRGXnhN-18" style="edgeStyle=orthogonalEdgeStyle;rounded=0;orthogonalLoop=1;jettySize=auto;html=1;exitX=1;exitY=0.5;exitDx=0;exitDy=0;" edge="1" parent="1" source="9cRUzx96YiKMziRGXnhN-20">
          <mxGeometry relative="1" as="geometry">
            <mxPoint x="-370" y="610" as="targetPoint" />
          </mxGeometry>
        </mxCell>
        <mxCell id="9cRUzx96YiKMziRGXnhN-7" value="copy paste di index.html &amp;lt;head&amp;gt;" style="text;html=1;align=center;verticalAlign=middle;whiteSpace=wrap;rounded=0;" vertex="1" parent="1">
          <mxGeometry x="-825" y="395" width="150" height="30" as="geometry" />
        </mxCell>
        <mxCell id="9cRUzx96YiKMziRGXnhN-17" style="edgeStyle=orthogonalEdgeStyle;rounded=0;orthogonalLoop=1;jettySize=auto;html=1;exitX=0.5;exitY=1;exitDx=0;exitDy=0;entryX=0.5;entryY=0;entryDx=0;entryDy=0;" edge="1" parent="1" source="9cRUzx96YiKMziRGXnhN-8" target="9cRUzx96YiKMziRGXnhN-12">
          <mxGeometry relative="1" as="geometry" />
        </mxCell>
        <mxCell id="9cRUzx96YiKMziRGXnhN-22" value="" style="edgeStyle=orthogonalEdgeStyle;rounded=0;orthogonalLoop=1;jettySize=auto;html=1;exitX=1;exitY=0.5;exitDx=0;exitDy=0;" edge="1" parent="1" source="9cRUzx96YiKMziRGXnhN-8" target="9cRUzx96YiKMziRGXnhN-21">
          <mxGeometry relative="1" as="geometry">
            <mxPoint x="-165" y="320" as="sourcePoint" />
          </mxGeometry>
        </mxCell>
        <mxCell id="9cRUzx96YiKMziRGXnhN-25" style="edgeStyle=orthogonalEdgeStyle;rounded=0;orthogonalLoop=1;jettySize=auto;html=1;exitX=0.5;exitY=1;exitDx=0;exitDy=0;entryX=0.25;entryY=0;entryDx=0;entryDy=0;" edge="1" parent="1" source="9cRUzx96YiKMziRGXnhN-8" target="9cRUzx96YiKMziRGXnhN-23">
          <mxGeometry relative="1" as="geometry">
            <Array as="points">
              <mxPoint x="-370" y="380" />
              <mxPoint x="-73" y="380" />
            </Array>
          </mxGeometry>
        </mxCell>
        <mxCell id="9cRUzx96YiKMziRGXnhN-8" value="src/app.js" style="rounded=0;whiteSpace=wrap;html=1;" vertex="1" parent="1">
          <mxGeometry x="-430" y="290" width="120" height="60" as="geometry" />
        </mxCell>
        <mxCell id="9cRUzx96YiKMziRGXnhN-10" value="" style="edgeStyle=orthogonalEdgeStyle;rounded=0;orthogonalLoop=1;jettySize=auto;html=1;exitX=0.5;exitY=1;exitDx=0;exitDy=0;entryX=0;entryY=0.5;entryDx=0;entryDy=0;" edge="1" parent="1" source="9cRUzx96YiKMziRGXnhN-1" target="9cRUzx96YiKMziRGXnhN-11">
          <mxGeometry relative="1" as="geometry">
            <mxPoint x="-750" y="210" as="sourcePoint" />
            <mxPoint x="-430" y="320" as="targetPoint" />
            <Array as="points">
              <mxPoint x="-750" y="250" />
              <mxPoint x="-630" y="250" />
              <mxPoint x="-630" y="320" />
            </Array>
          </mxGeometry>
        </mxCell>
        <mxCell id="9cRUzx96YiKMziRGXnhN-11" value="buat folder&lt;div&gt;&amp;amp; file&lt;/div&gt;" style="text;html=1;align=center;verticalAlign=middle;whiteSpace=wrap;rounded=0;" vertex="1" parent="1">
          <mxGeometry x="-610" y="305" width="60" height="30" as="geometry" />
        </mxCell>
        <mxCell id="9cRUzx96YiKMziRGXnhN-12" value="&lt;div style=&quot;color: rgb(204, 204, 204); background-color: rgb(31, 31, 31); font-family: Consolas, &amp;quot;Courier New&amp;quot;, monospace; font-size: 14px; line-height: 19px; white-space: pre;&quot;&gt;&lt;span style=&quot;color: #808080;&quot;&gt;&amp;lt;&lt;/span&gt;&lt;span style=&quot;color: #569cd6;&quot;&gt;script&lt;/span&gt;&lt;span style=&quot;color: #d4d4d4;&quot;&gt; &lt;/span&gt;&lt;span style=&quot;color: #9cdcfe;&quot;&gt;src&lt;/span&gt;&lt;span style=&quot;color: #d4d4d4;&quot;&gt;=&lt;/span&gt;&lt;span style=&quot;color: #ce9178;&quot;&gt;&quot;src/app.js&quot;&lt;/span&gt;&lt;span style=&quot;color: #808080;&quot;&gt;&amp;gt;&lt;/span&gt;&lt;span style=&quot;color: #d4d4d4;&quot;&gt; &lt;/span&gt;&lt;span style=&quot;color: #808080;&quot;&gt;&amp;lt;/&lt;/span&gt;&lt;span style=&quot;color: #569cd6;&quot;&gt;script&lt;/span&gt;&lt;span style=&quot;color: #808080;&quot;&gt;&amp;gt;&lt;/span&gt;&lt;/div&gt;" style="rounded=0;whiteSpace=wrap;html=1;" vertex="1" parent="1">
          <mxGeometry x="-500" y="550" width="260" height="60" as="geometry" />
        </mxCell>
        <mxCell id="9cRUzx96YiKMziRGXnhN-19" value="" style="edgeStyle=orthogonalEdgeStyle;rounded=0;orthogonalLoop=1;jettySize=auto;html=1;exitX=1;exitY=0.5;exitDx=0;exitDy=0;" edge="1" parent="1" source="9cRUzx96YiKMziRGXnhN-7" target="9cRUzx96YiKMziRGXnhN-20">
          <mxGeometry relative="1" as="geometry">
            <mxPoint x="-370" y="610" as="targetPoint" />
            <mxPoint x="-675" y="410" as="sourcePoint" />
          </mxGeometry>
        </mxCell>
        <mxCell id="9cRUzx96YiKMziRGXnhN-20" value="pasang di &amp;lt;head&amp;gt;" style="text;html=1;align=center;verticalAlign=middle;whiteSpace=wrap;rounded=0;" vertex="1" parent="1">
          <mxGeometry x="-520" y="395" width="60" height="30" as="geometry" />
        </mxCell>
        <mxCell id="9cRUzx96YiKMziRGXnhN-24" value="" style="edgeStyle=orthogonalEdgeStyle;rounded=0;orthogonalLoop=1;jettySize=auto;html=1;" edge="1" parent="1" source="9cRUzx96YiKMziRGXnhN-21" target="9cRUzx96YiKMziRGXnhN-23">
          <mxGeometry relative="1" as="geometry" />
        </mxCell>
        <mxCell id="9cRUzx96YiKMziRGXnhN-21" value="https://alpinejs.dev/globals/alpine-data" style="rounded=0;whiteSpace=wrap;html=1;" vertex="1" parent="1">
          <mxGeometry x="-85" y="290" width="220" height="60" as="geometry" />
        </mxCell>
        <mxCell id="9cRUzx96YiKMziRGXnhN-27" value="" style="edgeStyle=orthogonalEdgeStyle;rounded=0;orthogonalLoop=1;jettySize=auto;html=1;" edge="1" parent="1" source="9cRUzx96YiKMziRGXnhN-23" target="9cRUzx96YiKMziRGXnhN-26">
          <mxGeometry relative="1" as="geometry" />
        </mxCell>
        <mxCell id="9cRUzx96YiKMziRGXnhN-23" value="&lt;div style=&quot;color: rgb(204, 204, 204); background-color: rgb(31, 31, 31); font-family: Consolas, &amp;quot;Courier New&amp;quot;, monospace; font-size: 14px; line-height: 19px; white-space: pre;&quot;&gt;&lt;span style=&quot;color: #9cdcfe;&quot;&gt;document&lt;/span&gt;.&lt;span style=&quot;color: #dcdcaa;&quot;&gt;addEventListener&lt;/span&gt;(&lt;span style=&quot;color: #ce9178;&quot;&gt;&#39;alpine:init&#39;&lt;/span&gt;, ()&lt;span style=&quot;color: #569cd6;&quot;&gt;=&amp;gt;&lt;/span&gt;{&lt;/div&gt;" style="rounded=0;whiteSpace=wrap;html=1;" vertex="1" parent="1">
          <mxGeometry x="-170" y="470" width="390" height="60" as="geometry" />
        </mxCell>
        <mxCell id="9cRUzx96YiKMziRGXnhN-29" value="" style="edgeStyle=orthogonalEdgeStyle;rounded=0;orthogonalLoop=1;jettySize=auto;html=1;" edge="1" parent="1" source="9cRUzx96YiKMziRGXnhN-26" target="9cRUzx96YiKMziRGXnhN-28">
          <mxGeometry relative="1" as="geometry" />
        </mxCell>
        <mxCell id="9cRUzx96YiKMziRGXnhN-26" value="&lt;div style=&quot;color: rgb(204, 204, 204); background-color: rgb(31, 31, 31); font-family: Consolas, &amp;quot;Courier New&amp;quot;, monospace; font-size: 14px; line-height: 19px; white-space: pre;&quot;&gt;&lt;div style=&quot;line-height: 19px;&quot;&gt;&lt;span style=&quot;color: #9cdcfe;&quot;&gt;Alpine&lt;/span&gt;.&lt;span style=&quot;color: #dcdcaa;&quot;&gt;data&lt;/span&gt;(&lt;span style=&quot;color: #ce9178;&quot;&gt;&#39;&lt;/span&gt;&lt;/div&gt;&lt;/div&gt;" style="rounded=0;whiteSpace=wrap;html=1;" vertex="1" parent="1">
          <mxGeometry x="-40" y="610" width="130" height="60" as="geometry" />
        </mxCell>
        <mxCell id="9cRUzx96YiKMziRGXnhN-31" value="" style="edgeStyle=orthogonalEdgeStyle;rounded=0;orthogonalLoop=1;jettySize=auto;html=1;" edge="1" parent="1" source="9cRUzx96YiKMziRGXnhN-28" target="9cRUzx96YiKMziRGXnhN-30">
          <mxGeometry relative="1" as="geometry" />
        </mxCell>
        <mxCell id="9cRUzx96YiKMziRGXnhN-36" style="edgeStyle=orthogonalEdgeStyle;rounded=0;orthogonalLoop=1;jettySize=auto;html=1;exitX=1;exitY=0.5;exitDx=0;exitDy=0;entryX=0;entryY=0.5;entryDx=0;entryDy=0;" edge="1" parent="1" source="9cRUzx96YiKMziRGXnhN-28" target="9cRUzx96YiKMziRGXnhN-32">
          <mxGeometry relative="1" as="geometry" />
        </mxCell>
        <mxCell id="9cRUzx96YiKMziRGXnhN-37" style="edgeStyle=orthogonalEdgeStyle;rounded=0;orthogonalLoop=1;jettySize=auto;html=1;exitX=1;exitY=0.5;exitDx=0;exitDy=0;entryX=0;entryY=0.5;entryDx=0;entryDy=0;" edge="1" parent="1" source="9cRUzx96YiKMziRGXnhN-28" target="9cRUzx96YiKMziRGXnhN-33">
          <mxGeometry relative="1" as="geometry" />
        </mxCell>
        <mxCell id="9cRUzx96YiKMziRGXnhN-38" style="edgeStyle=orthogonalEdgeStyle;rounded=0;orthogonalLoop=1;jettySize=auto;html=1;exitX=1;exitY=0.5;exitDx=0;exitDy=0;entryX=0;entryY=0.5;entryDx=0;entryDy=0;" edge="1" parent="1" source="9cRUzx96YiKMziRGXnhN-28" target="9cRUzx96YiKMziRGXnhN-34">
          <mxGeometry relative="1" as="geometry" />
        </mxCell>
        <mxCell id="9cRUzx96YiKMziRGXnhN-39" style="edgeStyle=orthogonalEdgeStyle;rounded=0;orthogonalLoop=1;jettySize=auto;html=1;exitX=1;exitY=0.5;exitDx=0;exitDy=0;entryX=0;entryY=0.5;entryDx=0;entryDy=0;" edge="1" parent="1" source="9cRUzx96YiKMziRGXnhN-28" target="9cRUzx96YiKMziRGXnhN-35">
          <mxGeometry relative="1" as="geometry" />
        </mxCell>
        <mxCell id="9cRUzx96YiKMziRGXnhN-28" value="&lt;div style=&quot;color: rgb(204, 204, 204); background-color: rgb(31, 31, 31); font-family: Consolas, &amp;quot;Courier New&amp;quot;, monospace; font-size: 14px; line-height: 19px; white-space: pre;&quot;&gt;&lt;div style=&quot;line-height: 19px;&quot;&gt;&lt;div style=&quot;line-height: 19px;&quot;&gt;&amp;nbsp;&lt;span style=&quot;color: #9cdcfe;&quot;&gt;items&lt;/span&gt;&lt;span style=&quot;color: #9cdcfe;&quot;&gt;:&lt;/span&gt;[&lt;/div&gt;&lt;/div&gt;&lt;/div&gt;" style="rounded=0;whiteSpace=wrap;html=1;" vertex="1" parent="1">
          <mxGeometry x="-170" y="750" width="390" height="60" as="geometry" />
        </mxCell>
        <mxCell id="9cRUzx96YiKMziRGXnhN-30" value="&lt;div style=&quot;color: rgb(204, 204, 204); background-color: rgb(31, 31, 31); font-family: Consolas, &amp;quot;Courier New&amp;quot;, monospace; font-size: 14px; line-height: 19px; white-space: pre;&quot;&gt;&lt;div style=&quot;line-height: 19px;&quot;&gt;&lt;div style=&quot;line-height: 19px;&quot;&gt;&lt;div style=&quot;line-height: 19px;&quot;&gt;&amp;nbsp;{&lt;span style=&quot;color: #9cdcfe;&quot;&gt;id&lt;/span&gt;&lt;span style=&quot;color: #9cdcfe;&quot;&gt;:&lt;/span&gt;&lt;span style=&quot;color: #b5cea8;&quot;&gt;1&lt;/span&gt;, &lt;span style=&quot;color: #9cdcfe;&quot;&gt;name&lt;/span&gt;&lt;span style=&quot;color: #9cdcfe;&quot;&gt;:&lt;/span&gt; &lt;span style=&quot;color: #ce9178;&quot;&gt;&#39;Robusta Brazil&#39;&lt;/span&gt;, &lt;span style=&quot;color: #9cdcfe;&quot;&gt;img&lt;/span&gt;&lt;span style=&quot;color: #9cdcfe;&quot;&gt;:&lt;/span&gt; &lt;span style=&quot;color: #ce9178;&quot;&gt;&#39;1.jpg&#39;&lt;/span&gt;, &lt;span style=&quot;color: #9cdcfe;&quot;&gt;price&lt;/span&gt;&lt;span style=&quot;color: #9cdcfe;&quot;&gt;:&lt;/span&gt; &lt;span style=&quot;color: #b5cea8;&quot;&gt;20000&lt;/span&gt;},&lt;/div&gt;&lt;/div&gt;&lt;/div&gt;&lt;/div&gt;" style="rounded=0;whiteSpace=wrap;html=1;" vertex="1" parent="1">
          <mxGeometry x="300" y="750" width="480" height="60" as="geometry" />
        </mxCell>
        <mxCell id="9cRUzx96YiKMziRGXnhN-32" value="&lt;div style=&quot;color: rgb(204, 204, 204); background-color: rgb(31, 31, 31); font-family: Consolas, &amp;quot;Courier New&amp;quot;, monospace; font-size: 14px; line-height: 19px; white-space: pre;&quot;&gt;&lt;div style=&quot;line-height: 19px;&quot;&gt;&lt;div style=&quot;line-height: 19px;&quot;&gt;&lt;div style=&quot;line-height: 19px;&quot;&gt;&lt;div style=&quot;line-height: 19px;&quot;&gt;{&lt;span style=&quot;color: #9cdcfe;&quot;&gt;id&lt;/span&gt;&lt;span style=&quot;color: #9cdcfe;&quot;&gt;:&lt;/span&gt;&lt;span style=&quot;color: #b5cea8;&quot;&gt;2&lt;/span&gt;, &lt;span style=&quot;color: #9cdcfe;&quot;&gt;name&lt;/span&gt;&lt;span style=&quot;color: #9cdcfe;&quot;&gt;:&lt;/span&gt; &lt;span style=&quot;color: #ce9178;&quot;&gt;&#39;Arabica Blend&#39;&lt;/span&gt;, &lt;span style=&quot;color: #9cdcfe;&quot;&gt;img&lt;/span&gt;&lt;span style=&quot;color: #9cdcfe;&quot;&gt;:&lt;/span&gt; &lt;span style=&quot;color: #ce9178;&quot;&gt;&#39;2.jpg&#39;&lt;/span&gt;, &lt;span style=&quot;color: #9cdcfe;&quot;&gt;price&lt;/span&gt;&lt;span style=&quot;color: #9cdcfe;&quot;&gt;:&lt;/span&gt; &lt;span style=&quot;color: #b5cea8;&quot;&gt;25000&lt;/span&gt;},&lt;/div&gt;&lt;/div&gt;&lt;/div&gt;&lt;/div&gt;&lt;/div&gt;" style="rounded=0;whiteSpace=wrap;html=1;" vertex="1" parent="1">
          <mxGeometry x="300" y="810" width="480" height="60" as="geometry" />
        </mxCell>
        <mxCell id="9cRUzx96YiKMziRGXnhN-33" value="&lt;div style=&quot;color: rgb(204, 204, 204); background-color: rgb(31, 31, 31); font-family: Consolas, &amp;quot;Courier New&amp;quot;, monospace; font-size: 14px; line-height: 19px; white-space: pre;&quot;&gt;&lt;div style=&quot;line-height: 19px;&quot;&gt;&lt;div style=&quot;line-height: 19px;&quot;&gt;&lt;div style=&quot;line-height: 19px;&quot;&gt;&lt;div style=&quot;line-height: 19px;&quot;&gt;{&lt;span style=&quot;color: #9cdcfe;&quot;&gt;id&lt;/span&gt;&lt;span style=&quot;color: #9cdcfe;&quot;&gt;:&lt;/span&gt;&lt;span style=&quot;color: #b5cea8;&quot;&gt;3&lt;/span&gt;, &lt;span style=&quot;color: #9cdcfe;&quot;&gt;name&lt;/span&gt;&lt;span style=&quot;color: #9cdcfe;&quot;&gt;:&lt;/span&gt; &lt;span style=&quot;color: #ce9178;&quot;&gt;&#39;Primo Passo&#39;&lt;/span&gt;, &lt;span style=&quot;color: #9cdcfe;&quot;&gt;img&lt;/span&gt;&lt;span style=&quot;color: #9cdcfe;&quot;&gt;:&lt;/span&gt; &lt;span style=&quot;color: #ce9178;&quot;&gt;&#39;3.jpg&#39;&lt;/span&gt;, &lt;span style=&quot;color: #9cdcfe;&quot;&gt;price&lt;/span&gt;&lt;span style=&quot;color: #9cdcfe;&quot;&gt;:&lt;/span&gt; &lt;span style=&quot;color: #b5cea8;&quot;&gt;30000&lt;/span&gt;},&lt;/div&gt;&lt;/div&gt;&lt;/div&gt;&lt;/div&gt;&lt;/div&gt;" style="rounded=0;whiteSpace=wrap;html=1;" vertex="1" parent="1">
          <mxGeometry x="300" y="870" width="480" height="60" as="geometry" />
        </mxCell>
        <mxCell id="9cRUzx96YiKMziRGXnhN-34" value="&lt;div style=&quot;color: rgb(204, 204, 204); background-color: rgb(31, 31, 31); font-family: Consolas, &amp;quot;Courier New&amp;quot;, monospace; font-size: 14px; line-height: 19px; white-space: pre;&quot;&gt;&lt;div style=&quot;line-height: 19px;&quot;&gt;&lt;div style=&quot;line-height: 19px;&quot;&gt;&lt;div style=&quot;line-height: 19px;&quot;&gt;&lt;div style=&quot;line-height: 19px;&quot;&gt;{&lt;span style=&quot;color: #9cdcfe;&quot;&gt;id&lt;/span&gt;&lt;span style=&quot;color: #9cdcfe;&quot;&gt;:&lt;/span&gt;&lt;span style=&quot;color: #b5cea8;&quot;&gt;4&lt;/span&gt;, &lt;span style=&quot;color: #9cdcfe;&quot;&gt;name&lt;/span&gt;&lt;span style=&quot;color: #9cdcfe;&quot;&gt;:&lt;/span&gt; &lt;span style=&quot;color: #ce9178;&quot;&gt;&#39;Aceh Gayo&#39;&lt;/span&gt;, &lt;span style=&quot;color: #9cdcfe;&quot;&gt;img&lt;/span&gt;&lt;span style=&quot;color: #9cdcfe;&quot;&gt;:&lt;/span&gt; &lt;span style=&quot;color: #ce9178;&quot;&gt;&#39;4.jpg&#39;&lt;/span&gt;, &lt;span style=&quot;color: #9cdcfe;&quot;&gt;price&lt;/span&gt;&lt;span style=&quot;color: #9cdcfe;&quot;&gt;:&lt;/span&gt; &lt;span style=&quot;color: #b5cea8;&quot;&gt;35000&lt;/span&gt;},&lt;/div&gt;&lt;/div&gt;&lt;/div&gt;&lt;/div&gt;&lt;/div&gt;" style="rounded=0;whiteSpace=wrap;html=1;" vertex="1" parent="1">
          <mxGeometry x="300" y="930" width="480" height="60" as="geometry" />
        </mxCell>
        <mxCell id="9cRUzx96YiKMziRGXnhN-35" value="&lt;div style=&quot;color: rgb(204, 204, 204); background-color: rgb(31, 31, 31); font-family: Consolas, &amp;quot;Courier New&amp;quot;, monospace; font-size: 14px; line-height: 19px; white-space: pre;&quot;&gt;&lt;div style=&quot;line-height: 19px;&quot;&gt;&lt;div style=&quot;line-height: 19px;&quot;&gt;&lt;div style=&quot;line-height: 19px;&quot;&gt;&lt;div style=&quot;line-height: 19px;&quot;&gt;{&lt;span style=&quot;color: #9cdcfe;&quot;&gt;id&lt;/span&gt;&lt;span style=&quot;color: #9cdcfe;&quot;&gt;:&lt;/span&gt;&lt;span style=&quot;color: #b5cea8;&quot;&gt;5&lt;/span&gt;, &lt;span style=&quot;color: #9cdcfe;&quot;&gt;name&lt;/span&gt;&lt;span style=&quot;color: #9cdcfe;&quot;&gt;:&lt;/span&gt; &lt;span style=&quot;color: #ce9178;&quot;&gt;&#39;Sumatra Mandheling&#39;&lt;/span&gt;, &lt;span style=&quot;color: #9cdcfe;&quot;&gt;img&lt;/span&gt;&lt;span style=&quot;color: #9cdcfe;&quot;&gt;:&lt;/span&gt; &lt;span style=&quot;color: #ce9178;&quot;&gt;&#39;5.jpg&#39;&lt;/span&gt;, &lt;span style=&quot;color: #9cdcfe;&quot;&gt;price&lt;/span&gt;&lt;span style=&quot;color: #9cdcfe;&quot;&gt;:&lt;/span&gt; &lt;span style=&quot;color: #b5cea8;&quot;&gt;40000&lt;/span&gt;}&lt;/div&gt;&lt;/div&gt;&lt;/div&gt;&lt;/div&gt;&lt;/div&gt;" style="rounded=0;whiteSpace=wrap;html=1;" vertex="1" parent="1">
          <mxGeometry x="300" y="990" width="480" height="60" as="geometry" />
        </mxCell>
        <mxCell id="9cRUzx96YiKMziRGXnhN-48" style="edgeStyle=orthogonalEdgeStyle;rounded=0;orthogonalLoop=1;jettySize=auto;html=1;exitX=0.5;exitY=0;exitDx=0;exitDy=0;entryX=0.5;entryY=1;entryDx=0;entryDy=0;" edge="1" parent="1" source="9cRUzx96YiKMziRGXnhN-40" target="9cRUzx96YiKMziRGXnhN-45">
          <mxGeometry relative="1" as="geometry">
            <Array as="points">
              <mxPoint x="140" y="560" />
              <mxPoint x="1060" y="560" />
            </Array>
          </mxGeometry>
        </mxCell>
        <mxCell id="9cRUzx96YiKMziRGXnhN-40" value="&lt;div style=&quot;color: rgb(204, 204, 204); background-color: rgb(31, 31, 31); font-family: Consolas, &amp;quot;Courier New&amp;quot;, monospace; font-size: 14px; line-height: 19px; white-space: pre;&quot;&gt;&lt;div style=&quot;line-height: 19px;&quot;&gt;&lt;span style=&quot;color: #ce9178;&quot;&gt;products&lt;/span&gt;&lt;/div&gt;&lt;/div&gt;" style="rounded=0;whiteSpace=wrap;html=1;" vertex="1" parent="1">
          <mxGeometry x="90" y="610" width="100" height="60" as="geometry" />
        </mxCell>
        <mxCell id="9cRUzx96YiKMziRGXnhN-41" value="&lt;div style=&quot;color: rgb(204, 204, 204); background-color: rgb(31, 31, 31); font-family: Consolas, &amp;quot;Courier New&amp;quot;, monospace; font-size: 14px; line-height: 19px; white-space: pre;&quot;&gt;&lt;div style=&quot;line-height: 19px;&quot;&gt;&lt;span style=&quot;color: rgb(206, 145, 120);&quot;&gt;&#39;&lt;/span&gt;, ()&lt;span style=&quot;color: rgb(86, 156, 214);&quot;&gt;=&amp;gt;&lt;/span&gt; ({&lt;br&gt;&lt;/div&gt;&lt;/div&gt;" style="rounded=0;whiteSpace=wrap;html=1;" vertex="1" parent="1">
          <mxGeometry x="190" y="610" width="100" height="60" as="geometry" />
        </mxCell>
        <mxCell id="9cRUzx96YiKMziRGXnhN-44" value="" style="edgeStyle=orthogonalEdgeStyle;rounded=0;orthogonalLoop=1;jettySize=auto;html=1;" edge="1" parent="1" source="9cRUzx96YiKMziRGXnhN-42" target="9cRUzx96YiKMziRGXnhN-43">
          <mxGeometry relative="1" as="geometry" />
        </mxCell>
        <mxCell id="9cRUzx96YiKMziRGXnhN-42" value="memanggil data alpine js" style="rounded=0;whiteSpace=wrap;html=1;" vertex="1" parent="1">
          <mxGeometry x="860" y="250" width="120" height="60" as="geometry" />
        </mxCell>
        <mxCell id="9cRUzx96YiKMziRGXnhN-43" value="&amp;lt;section" style="rounded=0;whiteSpace=wrap;html=1;" vertex="1" parent="1">
          <mxGeometry x="860" y="390" width="120" height="40" as="geometry" />
        </mxCell>
        <mxCell id="9cRUzx96YiKMziRGXnhN-45" value="&lt;div style=&quot;color: rgb(204, 204, 204); background-color: rgb(31, 31, 31); font-family: Consolas, &amp;quot;Courier New&amp;quot;, monospace; font-size: 14px; line-height: 19px; white-space: pre;&quot;&gt;&lt;span style=&quot;color: #9cdcfe;&quot;&gt;x-data&lt;/span&gt;=&lt;span style=&quot;color: #ce9178;&quot;&gt;&quot;&lt;/span&gt;&lt;span style=&quot;color: #9cdcfe;&quot;&gt;products&lt;/span&gt;&lt;span style=&quot;color: #ce9178;&quot;&gt;&quot;&lt;/span&gt;&lt;/div&gt;" style="rounded=0;whiteSpace=wrap;html=1;" vertex="1" parent="1">
          <mxGeometry x="980" y="390" width="160" height="40" as="geometry" />
        </mxCell>
        <mxCell id="9cRUzx96YiKMziRGXnhN-46" value="&lt;div style=&quot;color: rgb(204, 204, 204); background-color: rgb(31, 31, 31); font-family: Consolas, &amp;quot;Courier New&amp;quot;, monospace; font-size: 14px; line-height: 19px; white-space: pre;&quot;&gt;&lt;span style=&quot;color: #808080;&quot;&gt;&amp;gt;&lt;/span&gt;&lt;/div&gt;" style="rounded=0;whiteSpace=wrap;html=1;" vertex="1" parent="1">
          <mxGeometry x="1140" y="390" width="80" height="40" as="geometry" />
        </mxCell>
        <mxCell id="9cRUzx96YiKMziRGXnhN-51" style="edgeStyle=orthogonalEdgeStyle;rounded=0;orthogonalLoop=1;jettySize=auto;html=1;exitX=0;exitY=0.5;exitDx=0;exitDy=0;entryX=0;entryY=0.5;entryDx=0;entryDy=0;" edge="1" parent="1" source="9cRUzx96YiKMziRGXnhN-49" target="9cRUzx96YiKMziRGXnhN-50">
          <mxGeometry relative="1" as="geometry" />
        </mxCell>
        <mxCell id="9cRUzx96YiKMziRGXnhN-49" value="&lt;div style=&quot;color: rgb(204, 204, 204); background-color: rgb(31, 31, 31); font-family: Consolas, &amp;quot;Courier New&amp;quot;, monospace; font-size: 14px; line-height: 19px; white-space: pre;&quot;&gt;&lt;span style=&quot;color: #808080;&quot;&gt;&amp;lt;&lt;/span&gt;&lt;span style=&quot;color: #569cd6;&quot;&gt;div&lt;/span&gt; &lt;span style=&quot;color: #9cdcfe;&quot;&gt;class&lt;/span&gt;=&lt;span style=&quot;color: #ce9178;&quot;&gt;&quot;row&quot;&lt;/span&gt;&lt;span style=&quot;color: #808080;&quot;&gt;&amp;gt;&lt;/span&gt;&lt;/div&gt;" style="rounded=0;whiteSpace=wrap;html=1;" vertex="1" parent="1">
          <mxGeometry x="1110" y="480" width="180" height="40" as="geometry" />
        </mxCell>
        <mxCell id="9cRUzx96YiKMziRGXnhN-50" value="&lt;div style=&quot;color: rgb(204, 204, 204); background-color: rgb(31, 31, 31); font-family: Consolas, &amp;quot;Courier New&amp;quot;, monospace; font-size: 14px; line-height: 19px; white-space: pre;&quot;&gt;&lt;div style=&quot;line-height: 19px;&quot;&gt;&lt;span style=&quot;color: #808080;&quot;&gt;&amp;lt;&lt;/span&gt;&lt;span style=&quot;color: #569cd6;&quot;&gt;template&lt;/span&gt; &lt;span style=&quot;color: #9cdcfe;&quot;&gt;x-for&lt;/span&gt;=&lt;span style=&quot;color: #ce9178;&quot;&gt;&quot;&lt;/span&gt;&lt;span style=&quot;color: #ce9178;&quot;&gt;(&lt;/span&gt;&lt;span style=&quot;color: #9cdcfe;&quot;&gt;item&lt;/span&gt;&lt;span style=&quot;color: #ce9178;&quot;&gt;, &lt;/span&gt;&lt;span style=&quot;color: #9cdcfe;&quot;&gt;index&lt;/span&gt;&lt;span style=&quot;color: #ce9178;&quot;&gt;) &lt;/span&gt;&lt;span style=&quot;color: #569cd6;&quot;&gt;in&lt;/span&gt;&lt;span style=&quot;color: #ce9178;&quot;&gt; &lt;/span&gt;&lt;span style=&quot;color: #9cdcfe;&quot;&gt;items&lt;/span&gt;&lt;span style=&quot;color: #ce9178;&quot;&gt;&quot;&lt;/span&gt; &lt;span style=&quot;color: #9cdcfe;&quot;&gt;x-key&lt;/span&gt;=&lt;span style=&quot;color: #ce9178;&quot;&gt;&quot;&lt;/span&gt;&lt;span style=&quot;color: #9cdcfe;&quot;&gt;index&lt;/span&gt;&lt;span style=&quot;color: #ce9178;&quot;&gt;&quot;&lt;/span&gt;&lt;span style=&quot;color: #808080;&quot;&gt;&amp;gt;&lt;/span&gt;&lt;/div&gt;&lt;/div&gt;" style="rounded=0;whiteSpace=wrap;html=1;" vertex="1" parent="1">
          <mxGeometry x="1150" y="520" width="450" height="40" as="geometry" />
        </mxCell>
        <mxCell id="9cRUzx96YiKMziRGXnhN-54" value="" style="edgeStyle=orthogonalEdgeStyle;rounded=0;orthogonalLoop=1;jettySize=auto;html=1;" edge="1" parent="1" source="9cRUzx96YiKMziRGXnhN-60" target="9cRUzx96YiKMziRGXnhN-53">
          <mxGeometry relative="1" as="geometry" />
        </mxCell>
        <mxCell id="9cRUzx96YiKMziRGXnhN-52" value="looping" style="rounded=0;whiteSpace=wrap;html=1;" vertex="1" parent="1">
          <mxGeometry x="1150" y="590" width="120" height="60" as="geometry" />
        </mxCell>
        <mxCell id="9cRUzx96YiKMziRGXnhN-53" value="&lt;div style=&quot;color: rgb(204, 204, 204); background-color: rgb(31, 31, 31); font-family: Consolas, &amp;quot;Courier New&amp;quot;, monospace; font-size: 14px; line-height: 19px; white-space: pre;&quot;&gt;&lt;span style=&quot;color: #808080;&quot;&gt;&amp;lt;&lt;/span&gt;&lt;span style=&quot;color: #569cd6;&quot;&gt;img&lt;/span&gt; &lt;span style=&quot;color: #9cdcfe;&quot;&gt;:src&lt;/span&gt;=&lt;span style=&quot;color: #ce9178;&quot;&gt;&quot;&lt;/span&gt;&lt;span style=&quot;color: #ce9178;&quot;&gt;`img/products/&lt;/span&gt;&lt;span style=&quot;color: #569cd6;&quot;&gt;${&lt;/span&gt;&lt;span style=&quot;color: #9cdcfe;&quot;&gt;item&lt;/span&gt;&lt;span style=&quot;color: #d4d4d4;&quot;&gt;.&lt;/span&gt;&lt;span style=&quot;color: #9cdcfe;&quot;&gt;img&lt;/span&gt;&lt;span style=&quot;color: #569cd6;&quot;&gt;}&lt;/span&gt;&lt;span style=&quot;color: #ce9178;&quot;&gt;`&lt;/span&gt;&lt;span style=&quot;color: #ce9178;&quot;&gt;&quot;&lt;/span&gt; &lt;span style=&quot;color: #9cdcfe;&quot;&gt;:alt&lt;/span&gt;=&lt;span style=&quot;color: #ce9178;&quot;&gt;&quot;&lt;/span&gt;&lt;span style=&quot;color: #9cdcfe;&quot;&gt;item&lt;/span&gt;&lt;span style=&quot;color: #ce9178;&quot;&gt;.&lt;/span&gt;&lt;span style=&quot;color: #9cdcfe;&quot;&gt;name&lt;/span&gt;&lt;span style=&quot;color: #ce9178;&quot;&gt;&quot;&lt;/span&gt;&lt;span style=&quot;color: #808080;&quot;&gt;&amp;gt;&lt;/span&gt;&lt;/div&gt;" style="rounded=0;whiteSpace=wrap;html=1;" vertex="1" parent="1">
          <mxGeometry x="990" y="910" width="440" height="30" as="geometry" />
        </mxCell>
        <mxCell id="9cRUzx96YiKMziRGXnhN-56" value="" style="edgeStyle=orthogonalEdgeStyle;rounded=0;orthogonalLoop=1;jettySize=auto;html=1;" edge="1" parent="1" source="9cRUzx96YiKMziRGXnhN-58" target="9cRUzx96YiKMziRGXnhN-55">
          <mxGeometry relative="1" as="geometry">
            <mxPoint x="1210" y="650" as="sourcePoint" />
            <mxPoint x="1210" y="765" as="targetPoint" />
          </mxGeometry>
        </mxCell>
        <mxCell id="9cRUzx96YiKMziRGXnhN-55" value="&lt;div style=&quot;background-color: rgb(31, 31, 31); font-family: Consolas, &amp;quot;Courier New&amp;quot;, monospace; font-size: 14px; line-height: 19px; white-space: pre;&quot;&gt;&lt;span style=&quot;color: rgb(128, 128, 128);&quot;&gt;&amp;lt;&lt;/span&gt;&lt;span style=&quot;color: rgb(86, 156, 214);&quot;&gt;img&lt;/span&gt;&lt;font color=&quot;#cccccc&quot;&gt; &lt;/font&gt;&lt;span style=&quot;color: rgb(156, 220, 254);&quot;&gt;src&lt;/span&gt;&lt;font color=&quot;#cccccc&quot;&gt;=&lt;/font&gt;&lt;span style=&quot;color: rgb(206, 145, 120);&quot;&gt;&quot;&lt;/span&gt;&lt;span style=&quot;color: rgb(206, 145, 120);&quot;&gt;img/products/&lt;/span&gt;&lt;font color=&quot;#569cd6&quot;&gt;1.jpg&lt;/font&gt;&lt;span style=&quot;color: rgb(206, 145, 120);&quot;&gt;&quot;&lt;/span&gt;&lt;font color=&quot;#cccccc&quot;&gt; &lt;/font&gt;&lt;span style=&quot;color: rgb(156, 220, 254);&quot;&gt;alt&lt;/span&gt;&lt;font color=&quot;#cccccc&quot;&gt;=&lt;/font&gt;&lt;span style=&quot;color: rgb(206, 145, 120);&quot;&gt;&quot;&lt;/span&gt;&lt;span style=&quot;color: rgb(156, 220, 254);&quot;&gt;item&lt;/span&gt;&lt;span style=&quot;color: rgb(206, 145, 120);&quot;&gt;.&lt;/span&gt;&lt;span style=&quot;color: rgb(156, 220, 254);&quot;&gt;name&lt;/span&gt;&lt;span style=&quot;color: rgb(206, 145, 120);&quot;&gt;&quot;&lt;/span&gt;&lt;span style=&quot;color: rgb(128, 128, 128);&quot;&gt;&amp;gt;&lt;/span&gt;&lt;/div&gt;" style="rounded=0;whiteSpace=wrap;html=1;" vertex="1" parent="1">
          <mxGeometry x="1020" y="760" width="380" height="30" as="geometry" />
        </mxCell>
        <mxCell id="9cRUzx96YiKMziRGXnhN-57" value="" style="edgeStyle=orthogonalEdgeStyle;rounded=0;orthogonalLoop=1;jettySize=auto;html=1;" edge="1" parent="1" source="9cRUzx96YiKMziRGXnhN-52" target="9cRUzx96YiKMziRGXnhN-58">
          <mxGeometry relative="1" as="geometry">
            <mxPoint x="1210" y="650" as="sourcePoint" />
            <mxPoint x="1210" y="750" as="targetPoint" />
          </mxGeometry>
        </mxCell>
        <mxCell id="9cRUzx96YiKMziRGXnhN-58" value="awal" style="text;html=1;align=center;verticalAlign=middle;whiteSpace=wrap;rounded=0;" vertex="1" parent="1">
          <mxGeometry x="1180" y="675" width="60" height="30" as="geometry" />
        </mxCell>
        <mxCell id="9cRUzx96YiKMziRGXnhN-59" value="" style="edgeStyle=orthogonalEdgeStyle;rounded=0;orthogonalLoop=1;jettySize=auto;html=1;" edge="1" parent="1" source="9cRUzx96YiKMziRGXnhN-55" target="9cRUzx96YiKMziRGXnhN-60">
          <mxGeometry relative="1" as="geometry">
            <mxPoint x="1210" y="780" as="sourcePoint" />
            <mxPoint x="1210" y="900" as="targetPoint" />
          </mxGeometry>
        </mxCell>
        <mxCell id="9cRUzx96YiKMziRGXnhN-60" value="ubah" style="text;html=1;align=center;verticalAlign=middle;whiteSpace=wrap;rounded=0;" vertex="1" parent="1">
          <mxGeometry x="1180" y="825" width="60" height="30" as="geometry" />
        </mxCell>
        <mxCell id="9cRUzx96YiKMziRGXnhN-61" value="https://developer.mozilla.org/en-US/docs/Web/JavaScript/Reference/Global_Objects/Intl/NumberFormat" style="rounded=0;whiteSpace=wrap;html=1;" vertex="1" parent="1">
          <mxGeometry x="190" y="1270" width="620" height="60" as="geometry" />
        </mxCell>
        <mxCell id="9cRUzx96YiKMziRGXnhN-62" value="mengubah format ruoiah" style="rounded=0;whiteSpace=wrap;html=1;fillColor=#d80073;fontColor=#ffffff;strokeColor=#A50040;" vertex="1" parent="1">
          <mxGeometry x="200" y="1210" width="120" height="60" as="geometry" />
        </mxCell>
        <mxCell id="9cRUzx96YiKMziRGXnhN-63" value="!!!&lt;div&gt;ketika di klik scroll ke atas&lt;/div&gt;" style="rounded=0;whiteSpace=wrap;html=1;fillColor=#a20025;fontColor=#ffffff;strokeColor=#6F0000;" vertex="1" parent="1">
          <mxGeometry x="270" y="1630" width="120" height="60" as="geometry" />
        </mxCell>
        <mxCell id="9cRUzx96YiKMziRGXnhN-65" style="edgeStyle=orthogonalEdgeStyle;rounded=0;orthogonalLoop=1;jettySize=auto;html=1;exitX=0.5;exitY=1;exitDx=0;exitDy=0;entryX=0.5;entryY=0;entryDx=0;entryDy=0;" edge="1" parent="1" source="9cRUzx96YiKMziRGXnhN-64" target="9cRUzx96YiKMziRGXnhN-63">
          <mxGeometry relative="1" as="geometry" />
        </mxCell>
        <mxCell id="9cRUzx96YiKMziRGXnhN-64" value="&lt;div style=&quot;color: rgb(204, 204, 204); background-color: rgb(31, 31, 31); font-family: Consolas, &amp;quot;Courier New&amp;quot;, monospace; font-size: 14px; line-height: 19px; white-space: pre;&quot;&gt;&lt;span style=&quot;color: #808080;&quot;&gt;&amp;lt;&lt;/span&gt;&lt;span style=&quot;color: #569cd6;&quot;&gt;a&lt;/span&gt; &lt;span style=&quot;color: #9cdcfe;&quot;&gt;href&lt;/span&gt;=&lt;span style=&quot;color: #ce9178;&quot;&gt;&quot;#&quot;&lt;/span&gt; &lt;span style=&quot;color: #9cdcfe;&quot;&gt;@click&lt;/span&gt;=&lt;span style=&quot;color: #ce9178;&quot;&gt;&quot;&lt;/span&gt;&lt;span style=&quot;color: #9cdcfe;&quot;&gt;$store&lt;/span&gt;&lt;span style=&quot;color: #ce9178;&quot;&gt;.&lt;/span&gt;&lt;span style=&quot;color: #9cdcfe;&quot;&gt;cart&lt;/span&gt;&lt;span style=&quot;color: #ce9178;&quot;&gt;.&lt;/span&gt;&lt;span style=&quot;color: #dcdcaa;&quot;&gt;add&lt;/span&gt;&lt;span style=&quot;color: #ce9178;&quot;&gt;(&lt;/span&gt;&lt;span style=&quot;color: #9cdcfe;&quot;&gt;item&lt;/span&gt;&lt;span style=&quot;color: #ce9178;&quot;&gt;)&lt;/span&gt;&lt;span style=&quot;color: #ce9178;&quot;&gt;&quot;&lt;/span&gt;&lt;span style=&quot;color: #808080;&quot;&gt;&amp;gt;&lt;/span&gt;&lt;/div&gt;" style="rounded=0;whiteSpace=wrap;html=1;" vertex="1" parent="1">
          <mxGeometry x="140" y="1500" width="380" height="60" as="geometry" />
        </mxCell>
      </root>
    </mxGraphModel>
  </diagram>
</mxfile>
